<svg xmlns="http://www.w3.org/2000/svg" width="24.57" height="36.531" viewBox="0 0 24.57 36.531"><defs><style>.a{fill:#fff;}.b{fill:#f0f0f0;}.c{fill:#8e8e8e;}.d{fill:#5d5d5d;}.e{fill:#f8f8f8;}.f{fill:#d3d3d3;}.g{fill:#e8c1c2;}.h{fill:#ea2125;}.i{fill:#283c64;}</style></defs><path class="a" d="M110.873,9.774a5.356,5.356,0,0,0-2.523-1.262A3.108,3.108,0,0,0,105.974,7.5,4.955,4.955,0,0,0,104,7.905l.118.143a4.485,4.485,0,0,0-2.287-.548c-3.533,0-6.106,2.8-6.851,3.713-2.029.56-3.659,1.949-3.659,3.972a45.019,45.019,0,0,0,1.53,8.2,2.287,2.287,0,0,0,1.9,3.558h.6a9.679,9.679,0,0,0,1.687,4.915v5.952L96.226,38l-.815,1.864a1.018,1.018,0,0,0,.168,1.06c.838.949,3.326,1.769,6.312,1.985,3.369.244,6.222-.364,6.822-1.388a.659.659,0,0,0,.033-.566l-.908-2.278h0l-1.076-.289V35.909a8.007,8.007,0,0,0,6.291-7.818v-8.7a4.178,4.178,0,0,0,1.144.689s2.745-9.416-3.323-10.309Z" transform="translate(-90.783 -6.965)"/><path class="b" d="M331.334,199.214a6.677,6.677,0,0,0-4.008-1.206l-1.037-.125.071.338a1.718,1.718,0,0,0,1.492,1.349,12.878,12.878,0,0,1,3.045.7.566.566,0,0,0,.217.043.572.572,0,0,0,.22-1.1Z" transform="translate(-308.988 -183.764)"/><path class="b" d="M112.48,14.364c-.024-2.537,1.528-4.128-1.607-4.59a5.356,5.356,0,0,0-2.523-1.262A3.108,3.108,0,0,0,105.974,7.5,4.955,4.955,0,0,0,104,7.905l.118.143a4.485,4.485,0,0,0-2.287-.548c-3.533,0-6.106,2.8-6.851,3.713-2.029.56-3.659,1.949-3.659,3.972a45.019,45.019,0,0,0,1.53,8.2,2.278,2.278,0,0,0-.381,1.42,2.364,2.364,0,0,0,2.4,2.138h.489a9.678,9.678,0,0,0,1.687,4.915v5.952L96.226,38l-.815,1.864a1.018,1.018,0,0,0,.168,1.06c.838.949,3.326,1.769,6.312,1.985,3.369.244,6.222-.364,6.822-1.388a.659.659,0,0,0,.033-.566l-.908-2.278h0l-1.076-.289v-1.65A9.989,9.989,0,0,1,99.9,27.252V25.366a2.286,2.286,0,0,1,1.655-2.2,19.364,19.364,0,0,1,1.985-.468,1.753,1.753,0,0,0,1.472-1.662,37.234,37.234,0,0,0-5.112.547V15.507Z" transform="translate(-90.783 -6.965)"/><path class="c" d="M356.509,39.314l-.661,4.594s1.716,5.148,4,5.72C359.852,49.627,362.6,40.19,356.509,39.314Z" transform="translate(-336.438 -36.509)"/><path class="c" d="M272.712,22.864l-4.54,7.8C274.476,31.872,278.914,24.27,272.712,22.864Z" transform="translate(-255.018 -21.233)"/><path class="c" d="M105.973,7.5a5.713,5.713,0,0,0-2.058.44,4.659,4.659,0,0,0-2.089-.44c-3.555,0-6.306,3-6.927,3.734-1.993.574-3.583,1.953-3.583,3.952,0,2.681,1.5,7.864,1.5,7.864l1.358-.679h2.288V17.743c2.952-.178,9.792-.973,12.011-4.524,1.632-2.612.357-5.72-2.5-5.72Z" transform="translate(-90.782 -6.965)"/><path class="d" d="M104.184,7.838c-.108.039-.2.075-.268.1a4.659,4.659,0,0,0-2.089-.44c-3.555,0-6.306,3-6.927,3.734-1.993.574-3.583,1.953-3.583,3.952a27.224,27.224,0,0,0,.856,5.386,17.173,17.173,0,0,1,4.291-.476V17.112a1.14,1.14,0,0,1,1-1.134c2.371-.3,8.156-1.408,8.156-5.046A3.59,3.59,0,0,0,104.184,7.838Z" transform="translate(-90.782 -6.965)"/><path class="e" d="M165.491,279.262a1.714,1.714,0,0,0-1.513.982,3.426,3.426,0,0,1-3.057,1.878h-7.435a2.86,2.86,0,0,1-2.568-1.6,2.3,2.3,0,0,0-2.01-1.3l-1.116-.024a9.715,9.715,0,0,0,9.7,9.212,8.007,8.007,0,0,0,8.007-8.007v-1.144Z" transform="translate(-143.227 -259.281)"/><path class="f" d="M152.638,281.992a2.866,2.866,0,0,1-1.722-1.47,2.3,2.3,0,0,0-2.01-1.3l-1.116-.024c.015.292.047.579.087.864.011.08.026.158.039.237.033.2.073.393.118.586.022.094.042.189.067.281q.093.353.211.7c.047.134.1.264.153.4.041.1.083.208.127.31.067.152.136.3.21.451.026.052.054.1.081.155a9.85,9.85,0,0,0,.6,1h0a9.684,9.684,0,0,0,8.007,4.235c.067,0,.131-.008.2-.01A10,10,0,0,1,152.638,281.992Z" transform="translate(-143.226 -259.281)"/><path class="g" d="M160.306,442.075a12.222,12.222,0,0,1-6.171.811,12.743,12.743,0,0,1-5.863-1.6l-.617,1.411a1.018,1.018,0,0,0,.168,1.06c.838.949,3.326,1.769,6.312,1.985,3.369.244,6.222-.364,6.822-1.388a.659.659,0,0,0,.033-.566Z" transform="translate(-143.027 -409.803)"/><path class="h" d="M152.224,442.654a10.278,10.278,0,0,1-3.952-1.365l-.617,1.411a1.018,1.018,0,0,0,.168,1.06c.737.834,2.749,1.568,5.253,1.881Z" transform="translate(-143.028 -409.803)"/><path class="a" d="M239.039,429.529a11.155,11.155,0,0,1-2.08-.2,1.14,1.14,0,0,0-1.352,1.121v1.363h5.148v-2.449A9.7,9.7,0,0,1,239.039,429.529Z" transform="translate(-224.777 -398.68)"/><g transform="translate(0 0)"><path class="i" d="M223.223,218.954a.535.535,0,0,0-.926-.536.609.609,0,1,1-.528-.913.535.535,0,1,0,0-1.07,1.679,1.679,0,1,0,1.454,2.519Z" transform="translate(-210.367 -200.992)"/><path class="i" d="M334,219.793a1.685,1.685,0,0,0,1.454-.839.535.535,0,0,0-.926-.536.609.609,0,1,1-.528-.913.535.535,0,1,0,0-1.07,1.679,1.679,0,1,0,0,3.358Z" transform="translate(-314.585 -200.992)"/><path class="i" d="M277.958,286.794a2.248,2.248,0,0,0,3.022,0,.535.535,0,0,0-.734-.779,1.18,1.18,0,0,1-1.553,0,.535.535,0,0,0-.734.779Z" transform="translate(-263.95 -265.472)"/><path class="i" d="M216.6,191.051a.535.535,0,1,0-.017-1.07,10.5,10.5,0,0,0-4.2.8.535.535,0,0,0,.474.96A9.7,9.7,0,0,1,216.6,191.051Z" transform="translate(-202.931 -176.426)"/><path class="i" d="M280.418,351.247a4.591,4.591,0,0,1-.832.079,5.238,5.238,0,0,1-.843-.074.535.535,0,0,0-.173,1.056,6.31,6.31,0,0,0,1.016.088,5.656,5.656,0,0,0,1.027-.1.535.535,0,0,0-.195-1.052Z" transform="translate(-264.258 -326.177)"/><path class="i" d="M252.566,318.465a.535.535,0,0,0-1.007-.02l-.171.448a.534.534,0,0,0,.853.593,11.321,11.321,0,0,0,4.951.006.534.534,0,0,0,.776-.658l-.16-.389a.535.535,0,0,0-1,.042,9.37,9.37,0,0,1-2.076.206A9.054,9.054,0,0,1,252.566,318.465Z" transform="translate(-239.399 -295.404)"/><path class="i" d="M153.421,431.462C153.425,431.452,153.415,431.473,153.421,431.462Z" transform="translate(-148.453 -400.674)"/><path class="i" d="M107.345,4.359a4.592,4.592,0,0,0-3.32-2.073,4.926,4.926,0,0,0-2.283-1.148A3.66,3.66,0,0,0,99.008,0,5.668,5.668,0,0,0,96.97.384,5.477,5.477,0,0,0,94.861,0c-4,0-6.743,3.188-7.217,3.8a6.8,6.8,0,0,0-1.806.849,4.281,4.281,0,0,0-2.022,3.575,39.908,39.908,0,0,0,1.532,8.047,2.821,2.821,0,0,0,2.435,4.249h.108a10.2,10.2,0,0,0,1.644,4.556v4.9a1.616,1.616,0,0,0-.752.811l-.83,1.895,0,.011a1.562,1.562,0,0,0,.262,1.618c.964,1.091,3.583,1.941,6.674,2.165.5.036,1,.055,1.494.055a15.676,15.676,0,0,0,3.1-.283c1.779-.367,2.464-.976,2.726-1.423a1.186,1.186,0,0,0,.072-1.027l0-.008-.883-2.215a2.058,2.058,0,0,0-1.064-1.108v-1.1a8.557,8.557,0,0,0,6.291-8.241v-7.7a4.473,4.473,0,0,0,.413.188.535.535,0,0,0,.71-.348c.068-.233,1.641-5.743-.4-8.909Zm-5.382,2.18a4.814,4.814,0,0,0,.606-3.972A2.235,2.235,0,0,1,103.9,5.157a5.549,5.549,0,0,1-4.627,3.8,7.331,7.331,0,0,0,2.693-2.42Zm-16.342,6.49a24.855,24.855,0,0,1-.735-4.807,3.238,3.238,0,0,1,1.553-2.69A6.6,6.6,0,0,1,90.071,4.5a.535.535,0,0,0,0-1.07c-.217,0-.434.01-.65.027a8.27,8.27,0,0,1,5.44-2.388c1.654,0,2.769.656,3.141,1.848A3.407,3.407,0,0,1,96.63,6.565a.535.535,0,1,0,.608.881A4.454,4.454,0,0,0,99.023,2.6a3.434,3.434,0,0,0-.873-1.446,4.548,4.548,0,0,1,.857-.083,2.528,2.528,0,0,1,2.321,1.3,3.576,3.576,0,0,1-.272,3.6C98.387,10.242,88.219,10.3,88.116,10.3a.535.535,0,0,0,0,1.07c.068,0,.372,0,.847-.021v1.239A8.909,8.909,0,0,0,85.622,13.028Zm3.342.626v1.217H87.783a2.807,2.807,0,0,0-1.578.483c-.088-.323-.2-.762-.331-1.273A7.567,7.567,0,0,1,88.964,13.654ZM101.28,34.182a.137.137,0,0,1,0,.1c-.161.274-.776.659-2.019.916a16.309,16.309,0,0,1-4.3.209c-3.2-.231-5.324-1.1-5.949-1.806a.484.484,0,0,1-.076-.5l.394-.9a4.917,4.917,0,0,0,1.366.721,15.792,15.792,0,0,0,4.227.821c.474.033.942.05,1.4.05a13.889,13.889,0,0,0,2.9-.274,4.621,4.621,0,0,0,1.557-.59ZM90.606,31.729v-5.3a10.224,10.224,0,0,0,7.472,3.243,8.583,8.583,0,0,0,1.181-.082v2.827c-.112.029-.235.058-.369.086a16.823,16.823,0,0,1-7.719-.54C90.95,31.88,90.764,31.8,90.606,31.729Zm16.266-19.387a5.859,5.859,0,0,1-2.135-2.853.535.535,0,0,0-1.021.322,7.246,7.246,0,0,0,1.834,2.864v1.458a14.22,14.22,0,0,0-3.853-.579.535.535,0,1,0-.017,1.07,12.866,12.866,0,0,1,3.87.634v5.866A7.481,7.481,0,0,1,98.078,28.6a9.187,9.187,0,0,1-9.16-8.647.535.535,0,0,0-.534-.5h-.6a1.753,1.753,0,1,1,0-3.505h1.181v.609a.535.535,0,1,0,1.07,0V11.283a28.579,28.579,0,0,0,6.923-1.306,7.671,7.671,0,0,0,1.353.122,7.324,7.324,0,0,0,3.915-1.122,5.928,5.928,0,0,0,2.72-3.6,3.41,3.41,0,0,0-.071-1.758,3.349,3.349,0,0,1,1.571,1.319c1.409,2.185.762,5.927.427,7.4Z" transform="translate(-83.816 0)"/></g></svg>