<svg version="1.2" baseProfile="tiny-ps" xmlns="http://www.w3.org/2000/svg" viewBox="0 0 309 224" width="309" height="224">
	<title>UnderConstructions-svg</title>
	<style>
		tspan { white-space:pre }
		.shp0 { opacity: 0.302;fill: #e6e6e6 } 
		.shp1 { opacity: 0.451;fill: #e6e6e6 } 
		.shp2 { fill: #e6e6e6 } 
		.shp3 { fill: #c9c9c9 } 
		.shp4 { fill: #ec0000 } 
		.shp5 { opacity: 0.078;fill: #000000 } 
		.shp6 { fill: #24285b } 
		.shp7 { opacity: 0.459;fill: #ffffff } 
		.shp8 { fill: #ffd200 } 
		.shp9 { opacity: 0.31;fill: #ffffff } 
	</style>
	<path id="Layer" class="shp0" d="M102.21 24.17C63.62 33.24 33.13 61.9 24.21 98.74C17.56 126.16 23.4 154.44 68.16 164.74C164.91 187 269.44 179.61 282 135.15C294.56 90.69 271.25 14.43 215.91 9.71C184.4 7 137.1 16 102.21 24.17Z" />
	<path id="Layer" class="shp1" d="M151.96 217.47C76.71 217.47 15.89 210.29 15.89 201.41C15.89 192.53 76.71 185.35 151.96 185.35C227.21 185.35 288.03 192.53 288.03 201.41C288.03 210.29 227.21 217.47 151.96 217.47Z" />
	<path id="Layer" class="shp2" d="M254.34 121.58L259.83 123.12L238.74 198.33L233.24 196.79L254.34 121.58Z" />
	<path id="Layer" fill-rule="evenodd" class="shp3" d="M262.52 126C262.41 126 262.3 126 262.2 125.99C262.09 125.98 261.98 125.97 261.87 125.95C261.77 125.94 261.66 125.92 261.55 125.9C261.45 125.88 261.34 125.85 261.24 125.82L252 123.27C251.4 123.1 250.84 122.82 250.35 122.43C249.86 122.04 249.45 121.57 249.14 121.02C248.84 120.48 248.64 119.88 248.57 119.26C248.49 118.64 248.54 118.01 248.71 117.41L250.57 110.78C250.74 110.18 251.02 109.62 251.41 109.13C251.8 108.63 252.27 108.22 252.82 107.92C253.36 107.61 253.96 107.42 254.58 107.34C255.2 107.26 255.83 107.31 256.43 107.48L265.65 110.07C266.25 110.24 266.81 110.53 267.3 110.91C267.79 111.3 268.2 111.78 268.51 112.32C268.82 112.87 269.01 113.47 269.08 114.09C269.16 114.71 269.11 115.34 268.94 115.94L267.08 122.57C266.94 123.06 266.72 123.52 266.42 123.94C266.13 124.36 265.78 124.73 265.37 125.04C264.96 125.35 264.51 125.59 264.02 125.75C263.54 125.91 263.03 126 262.52 126ZM262.04 123C262.27 123.06 262.5 123.08 262.74 123.05C262.97 123.03 263.2 122.95 263.4 122.84C263.61 122.72 263.79 122.57 263.93 122.38C264.08 122.2 264.19 121.99 264.25 121.76L266.11 115.13C266.18 114.9 266.2 114.66 266.17 114.43C266.14 114.2 266.07 113.97 265.95 113.76C265.84 113.56 265.68 113.37 265.5 113.23C265.31 113.08 265.1 112.97 264.87 112.91L255.65 110.33C255.42 110.27 255.19 110.25 254.95 110.28C254.72 110.3 254.49 110.38 254.29 110.49C254.08 110.61 253.9 110.76 253.76 110.95C253.61 111.13 253.5 111.34 253.44 111.57L251.58 118.2C251.52 118.43 251.5 118.66 251.53 118.9C251.55 119.13 251.63 119.36 251.74 119.56C251.86 119.77 252.01 119.95 252.2 120.09C252.38 120.24 252.59 120.35 252.82 120.41L262.04 123Z" />
	<path id="Layer" class="shp3" d="M249.3 202L253.89 185.64L226.54 178L221.74 195.1C221.58 195.66 221.46 196.23 221.37 196.81C221.28 197.39 221.23 197.97 221.21 198.56C221.2 199.14 221.22 199.73 221.27 200.31C221.33 200.89 221.42 201.47 221.55 202.04L249.3 202Z" />
	<path id="Layer" class="shp4" d="M107.17 70.94L121.15 70.94L121.15 203.86L107.17 203.86L107.17 70.94Z" />
	<path id="Layer" class="shp4" d="M182.72 70.94L196.7 70.94L196.7 203.86L182.72 203.86L182.72 70.94Z" />
	<path id="Layer" class="shp5" d="M107.17 70.94L121.15 70.94L121.15 203.86L107.17 203.86L107.17 70.94Z" />
	<path id="Layer" class="shp5" d="M182.72 70.94L196.7 70.94L196.7 203.86L182.72 203.86L182.72 70.94Z" />
	<path id="Layer" class="shp4" d="M90.62 87.44L213.31 87.44L213.31 130.72L90.62 130.72L90.62 87.44Z" />
	<path id="Layer" class="shp6" d="M96.84 87.44L111.5 130.72L131.78 130.72L115.12 87.44L96.84 87.44L96.84 87.44Z" />
	<path id="Layer" class="shp6" d="M134.39 87.44L149.05 130.72L169.33 130.72L152.66 87.44L134.39 87.44L134.39 87.44Z" />
	<path id="Layer" class="shp6" d="M171.83 87.44L186.49 130.72L206.77 130.72L190.1 87.44L171.83 87.44L171.83 87.44Z" />
	<path id="Layer" class="shp4" d="M90.62 147.11L213.31 147.11L213.31 167.4L90.62 167.4L90.62 147.11Z" />
	<path id="Layer" class="shp4" d="M58 195.42L70.26 139C70.39 138.45 70.7 137.95 71.15 137.6C71.59 137.24 72.15 137.05 72.72 137.05C73.28 137.05 73.84 137.24 74.28 137.6C74.73 137.95 75.04 138.45 75.17 139L88.55 196.36L58 195.42Z" />
	<path id="Layer" class="shp4" d="M53.85 194.4C53.85 191.96 55.83 189.98 58.27 189.98L87.89 189.98C90.33 189.98 92.31 191.96 92.31 194.4L92.31 195.01C92.31 197.45 90.33 199.43 87.89 199.43L58.27 199.43C55.83 199.43 53.85 197.45 53.85 195.01L53.85 194.4Z" />
	<path id="Layer" class="shp7" d="M53.85 194.4C53.85 191.96 55.83 189.98 58.27 189.98L87.89 189.98C90.33 189.98 92.31 191.96 92.31 194.4L92.31 195.01C92.31 197.45 90.33 199.43 87.89 199.43L58.27 199.43C55.83 199.43 53.85 197.45 53.85 195.01L53.85 194.4Z" />
	<path id="Layer" class="shp5" d="M65.7 159.94L78.83 154.68L82.66 171.1L62.02 176.81L65.7 159.94L65.7 159.94Z" />
	<path id="Layer" class="shp2" d="M60.3 200.34C60.3 200.34 65.89 192.34 57.55 190.08C49.21 187.82 59.55 177.03 51.79 175.6C44.03 174.17 45.32 185.6 45.32 185.6C45.32 185.6 40 181 36.26 184.9C32.52 188.8 37.74 193 37.74 193C37.74 193 30.27 195.58 34.93 200.3L60.3 200.34Z" />
	<path id="Layer" class="shp3" d="M49.08 201.41C49.08 201.41 52.63 195.33 57.87 196.08C63.11 196.83 62.54 201.41 62.54 201.41L49.08 201.41Z" />
	<path id="Layer" class="shp8" d="M179.16 86.86L221.16 108.11C221.49 108.27 221.86 108.34 222.23 108.29C222.6 108.23 222.94 108.07 223.21 107.83C223.49 107.58 223.68 107.25 223.77 106.89C223.86 106.53 223.83 106.16 223.7 105.81L222.81 103.54C222.56 102.9 222.37 102.25 222.25 101.58C222.12 100.9 222.06 100.22 222.06 99.54C222.06 98.86 222.12 98.18 222.25 97.5C222.37 96.83 222.56 96.18 222.81 95.54C225.5 88.54 229.48 73.54 218.31 65.15C204.01 54.38 181.91 55.42 176.71 81.86C176.61 82.35 176.59 82.85 176.65 83.35C176.71 83.85 176.86 84.33 177.08 84.78C177.3 85.23 177.59 85.64 177.95 85.99C178.3 86.35 178.71 86.64 179.16 86.86L179.16 86.86Z" />
	<path id="Layer" class="shp5" d="M180.31 87.44L213.3 119.28L213.3 104.12L180.31 87.44L180.31 87.44Z" />
	<path id="Layer" class="shp9" d="M185.19 71.2C187.74 67.63 192.89 62.32 201.01 62.1C201.33 62.09 201.64 62.19 201.9 62.38C202.16 62.57 202.34 62.84 202.43 63.14C202.52 63.45 202.5 63.78 202.39 64.07C202.27 64.37 202.05 64.62 201.78 64.78C200.66 65.41 199.58 66.11 198.53 66.85C197.49 67.6 196.49 68.4 195.52 69.26C194.56 70.11 193.65 71.01 192.78 71.96C191.92 72.91 191.1 73.91 190.34 74.94C190.12 75.25 189.85 75.51 189.54 75.72C189.23 75.94 188.89 76.09 188.53 76.18C188.16 76.27 187.78 76.3 187.41 76.26C187.04 76.22 186.68 76.11 186.34 75.94L186.34 75.94C185.92 75.74 185.55 75.44 185.26 75.08C184.97 74.72 184.76 74.29 184.65 73.84C184.54 73.39 184.53 72.92 184.63 72.46C184.72 72 184.91 71.57 185.19 71.2L185.19 71.2Z" />
	<path id="Layer" class="shp2" d="M55.82 93.08C55.82 92.07 55.6 91.06 55.17 90.14C54.74 89.22 54.12 88.41 53.35 87.75C52.58 87.09 51.67 86.61 50.69 86.34C49.72 86.07 48.69 86.02 47.69 86.18C47.29 85.43 46.79 84.74 46.21 84.12C45.62 83.5 44.95 82.97 44.23 82.53C43.5 82.09 42.71 81.76 41.89 81.53C41.08 81.3 40.23 81.18 39.38 81.18L39.03 81.18C39.09 80.96 39.14 80.73 39.18 80.51C39.22 80.28 39.26 80.06 39.29 79.83C39.32 79.6 39.34 79.38 39.36 79.15C39.37 78.92 39.38 78.69 39.38 78.46C39.38 75.49 38.2 72.64 36.1 70.53C33.99 68.43 31.14 67.25 28.17 67.25C25.2 67.25 22.35 68.43 20.24 70.53C18.14 72.64 16.96 75.49 16.96 78.46C16.96 78.69 16.97 78.92 16.98 79.15C17 79.38 17.02 79.6 17.05 79.83C17.08 80.06 17.12 80.28 17.16 80.51C17.2 80.73 17.25 80.96 17.31 81.18L16.96 81.18C14.51 81.26 12.18 82.29 10.48 84.05C8.77 85.81 7.82 88.17 7.82 90.63C7.82 93.08 8.77 95.44 10.48 97.2C12.18 98.96 14.51 99.99 16.96 100.07L49.73 100.07L49.73 100C50.56 99.89 51.37 99.63 52.11 99.24C52.85 98.84 53.52 98.32 54.07 97.68C54.63 97.05 55.07 96.33 55.37 95.54C55.66 94.75 55.82 93.92 55.82 93.08L55.82 93.08Z" />
	<path id="Layer" class="shp2" d="M284.81 39.66C284.81 38.44 284.57 37.24 284.1 36.11C283.63 34.99 282.95 33.97 282.09 33.1C281.23 32.24 280.2 31.56 279.08 31.1C277.95 30.63 276.75 30.39 275.53 30.39C275.41 30.39 275.28 30.39 275.16 30.4C275.03 30.41 274.91 30.41 274.78 30.42C274.66 30.44 274.53 30.45 274.41 30.46C274.29 30.48 274.16 30.5 274.04 30.52C273.51 29.53 272.85 28.62 272.07 27.8C271.3 26.99 270.41 26.28 269.45 25.71C268.49 25.13 267.45 24.68 266.37 24.38C265.28 24.08 264.16 23.93 263.04 23.93L262.58 23.93C262.66 23.64 262.72 23.34 262.78 23.04C262.84 22.75 262.88 22.45 262.92 22.15C262.96 21.85 262.99 21.55 263.01 21.25C263.03 20.94 263.04 20.64 263.04 20.34C263.14 16.34 261.63 12.46 258.83 9.59C256.04 6.72 252.2 5.1 248.2 5.1C244.19 5.1 240.35 6.72 237.56 9.59C234.76 12.46 233.25 16.34 233.35 20.34C233.35 20.65 233.36 20.96 233.38 21.26C233.39 21.57 233.42 21.88 233.46 22.18C233.5 22.49 233.54 22.79 233.6 23.1C233.66 23.4 233.72 23.7 233.8 24L233.34 24C230.11 24.13 227.06 25.5 224.82 27.83C222.58 30.16 221.33 33.27 221.33 36.5C221.33 39.73 222.58 42.84 224.82 45.17C227.06 47.5 230.11 48.87 233.34 49L276.74 49L276.74 48.91C277.85 48.76 278.93 48.42 279.92 47.89C280.9 47.36 281.79 46.66 282.53 45.81C283.26 44.97 283.84 44 284.23 42.95C284.62 41.89 284.82 40.78 284.81 39.66Z" />
</svg> 