<svg xmlns="http://www.w3.org/2000/svg" width="16.79" height="16.79" viewBox="0 0 16.79 16.79"><defs><style>.a{fill:#d9d9d9;}</style></defs><g transform="translate(0 16.79) rotate(-90)"><g transform="translate(0 0)"><path class="a" d="M15.879,7.224H9.566V.911A1.132,1.132,0,0,0,8.395,0,1.132,1.132,0,0,0,7.224.911V7.224H.911A1.132,1.132,0,0,0,0,8.395,1.132,1.132,0,0,0,.911,9.566H7.224v6.313A1.132,1.132,0,0,0,8.4,16.79a1.132,1.132,0,0,0,1.171-.911V9.566h6.313a1.132,1.132,0,0,0,.911-1.171A1.132,1.132,0,0,0,15.879,7.224Z"/></g></g></svg>