<svg width="27" height="26" viewBox="0 0 27 26" fill="none" xmlns="http://www.w3.org/2000/svg">
<path d="M13.3594 17.3333C11.8058 17.3333 10.5377 16.06 10.5377 14.5C10.5377 14.2267 10.7634 14 11.0356 14C11.3078 14 11.5336 14.2267 11.5336 14.5C11.5336 15.5133 12.3502 16.3333 13.3594 16.3333C14.3686 16.3333 15.1853 15.5133 15.1853 14.5C15.1853 14.2267 15.411 14 15.6832 14C15.9554 14 16.1812 14.2267 16.1812 14.5C16.1812 16.06 14.913 17.3333 13.3594 17.3333Z" fill="#7A7A7A"/>
<path d="M8.83797 9.25332C8.71182 9.25332 8.57903 9.19999 8.48608 9.10666C8.29354 8.91332 8.29354 8.59332 8.48608 8.39999L10.8962 5.97999C11.0887 5.78666 11.4074 5.78666 11.6 5.97999C11.7925 6.17332 11.7925 6.49332 11.6 6.68666L9.18986 9.10666C9.09027 9.19999 8.96412 9.25332 8.83797 9.25332Z" fill="#7A7A7A"/>
<path d="M17.8808 9.25332C17.7547 9.25332 17.6285 9.20666 17.5289 9.10666L15.1188 6.68666C14.9263 6.49332 14.9263 6.17332 15.1188 5.97999C15.3114 5.78666 15.6301 5.78666 15.8226 5.97999L18.2327 8.39999C18.4253 8.59332 18.4253 8.91332 18.2327 9.10666C18.1398 9.19999 18.007 9.25332 17.8808 9.25332Z" fill="#7A7A7A"/>
<path d="M18.8104 12.0667C18.7639 12.0667 18.7175 12.0667 18.671 12.0667H18.5183H8.04789C7.58313 12.0733 7.05198 12.0733 6.66689 11.6867C6.36147 11.3867 6.22205 10.92 6.22205 10.2333C6.22205 8.39999 7.55657 8.39999 8.19396 8.39999H18.5249C19.1623 8.39999 20.4968 8.39999 20.4968 10.2333C20.4968 10.9267 20.3574 11.3867 20.052 11.6867C19.7067 12.0333 19.242 12.0667 18.8104 12.0667ZM8.19396 11.0667H18.6776C18.9764 11.0733 19.2553 11.0733 19.3482 10.98C19.3947 10.9333 19.4943 10.7733 19.4943 10.2333C19.4943 9.47999 19.3084 9.39999 18.5183 9.39999H8.19396C7.40386 9.39999 7.21796 9.47999 7.21796 10.2333C7.21796 10.7733 7.32419 10.9333 7.36403 10.98C7.45698 11.0667 7.74248 11.0667 8.03461 11.0667H8.19396Z" fill="#7A7A7A"/>
<path d="M15.2782 20.1667H11.2746C8.89773 20.1667 8.36658 18.7467 8.16075 17.5133L7.22459 11.7467C7.17812 11.4733 7.36402 11.22 7.63624 11.1733C7.90182 11.1267 8.16075 11.3133 8.20723 11.5867L9.14339 17.3467C9.33593 18.5267 9.7343 19.1667 11.2746 19.1667H15.2782C16.9846 19.1667 17.1771 18.5667 17.3962 17.4067L18.5116 11.5733C18.5647 11.3 18.8237 11.12 19.0959 11.18C19.3681 11.2333 19.5407 11.4933 19.4876 11.7667L18.3722 17.6C18.1133 18.9533 17.6817 20.1667 15.2782 20.1667Z" fill="#7A7A7A"/>
<path d="M13.3592 25C19.9596 25 25.3102 19.6274 25.3102 13C25.3102 6.37258 19.9596 1 13.3592 1C6.7589 1 1.40826 6.37258 1.40826 13C1.40826 19.6274 6.7589 25 13.3592 25Z" stroke="#7A7A7A" stroke-width="2" stroke-linecap="round" stroke-linejoin="round"/>
</svg>