<svg xmlns="http://www.w3.org/2000/svg" width="36.502" height="24.192" viewBox="0 0 36.502 24.192"><defs><style>.a{fill:#d4d4d4;}.b{fill:#efefef;}.c{fill:#707070;}</style></defs><path class="a" d="M307.121,103.77l14.034-11.686v23.372Z" transform="translate(-285.225 -91.674)"/><g transform="translate(0.32 0.572)"><path class="b" d="M18.462,105.994,4.491,94.36H40.353L22.422,109.291Z" transform="translate(-4.491 -94.36)"/><path class="b" d="M4.491,265.1l14.063-11.71,3.869,3.221,3.868-3.221L40.353,265.1Z" transform="translate(-4.491 -242.054)"/></g><path class="a" d="M8.032,92.084,22.066,103.77,8.032,115.456Z" transform="translate(-7.459 -91.674)"/><path class="c" d="M122.712,362.087h-5.253a.716.716,0,1,0,0,1.431h5.253a.716.716,0,1,0,0-1.431Z" transform="translate(-108.42 -342.427)"/><path class="c" d="M217.777,362.089a.716.716,0,0,0,0,1.432A.716.716,0,0,0,217.777,362.089Z" transform="translate(-201.608 -342.429)"/><path class="c" d="M36.5,86.974v-.007c0-.021-.005-.042-.01-.062s0-.019-.007-.028-.006-.027-.01-.04-.008-.022-.012-.032-.008-.022-.012-.033-.011-.024-.017-.036-.008-.018-.013-.027-.021-.036-.032-.053l0-.007q-.02-.03-.043-.057h0l-.013-.014c-.011-.012-.022-.025-.034-.036l-.026-.024-.025-.022-.032-.024-.024-.017-.034-.02-.027-.016-.032-.016-.032-.014-.03-.011-.036-.012-.03-.008-.038-.009-.034-.005-.035,0-.048,0H.7l-.049,0-.035,0-.034.005-.038.009-.029.007-.037.013-.03.011L.412,86.4l-.032.015-.028.016-.033.02L.3,86.468l-.031.023-.026.023-.026.024c-.012.012-.023.024-.034.037l-.013.014h0a.684.684,0,0,0-.043.057l0,.007c-.011.017-.022.035-.032.053s-.009.018-.013.027-.012.024-.017.036-.008.022-.012.033-.008.022-.012.033-.007.026-.01.039-.005.019-.007.029-.007.041-.01.062c0,0,0,0,0,.007a.7.7,0,0,0,0,.071H0v22.761H0c0,.024,0,.048,0,.071,0,0,0,.006,0,.009,0,.02.005.041.009.061s0,.02.007.029.006.026.01.038.008.022.012.034.007.022.012.032.012.025.018.037.008.018.013.026.021.036.032.054l0,.007c.013.02.028.039.043.057h0l.007.008c.014.016.028.032.043.046l.022.02.034.029.027.02.034.023.028.017.038.02.027.013.045.018.024.009.053.015.019,0,.061.01.013,0c.023,0,.047,0,.07,0h35.08c.024,0,.047,0,.071,0l.013,0c.021,0,.041-.006.061-.01l.018,0,.053-.015.023-.009.045-.018.027-.013.038-.02.028-.017.034-.023.027-.02.034-.029.022-.02c.015-.015.03-.03.043-.046l.007-.008h0a.685.685,0,0,0,.043-.057l0-.007c.011-.017.022-.035.032-.054s.008-.017.013-.026.012-.024.018-.037.008-.022.012-.033.008-.022.012-.033.007-.026.01-.039.005-.019.007-.029.007-.04.009-.061c0,0,0-.006,0-.009a.7.7,0,0,0,0-.071h0V87.047h0A.632.632,0,0,0,36.5,86.974Zm-35.067,1.6,11.833,9.854L1.432,108.281Zm16.82,12.143-3.411-2.839L2.694,87.762H33.808Zm-3.869-1.358,3.411,2.84a.716.716,0,0,0,.916,0l3.41-2.839,11.689,9.733H2.694Zm8.855-.931,11.833-9.854v19.707Z" transform="translate(0 -86.331)"/></svg>