<svg xmlns="http://www.w3.org/2000/svg" width="25.118" height="25.087" viewBox="0 0 25.118 25.087"><defs><style>.a{fill:#5f5f5f;fill-rule:evenodd;}</style></defs><g transform="translate(0 0)"><path class="a" d="M45.806,744.452a2.892,2.892,0,0,1,1.576-.583,2.723,2.723,0,0,1,2.576,2.758,2.667,2.667,0,0,1-2.576,2.773,2.719,2.719,0,0,1-1.576-.505v-4.443Zm5.736-6.02a1.584,1.584,0,0,1,0,3.167,1.584,1.584,0,0,1,0-3.167Zm6.729,6.917a2.136,2.136,0,0,1-2.183-2.175,2.266,2.266,0,0,1,2.071-2.269,2.194,2.194,0,0,1,2.081,2.269,2.054,2.054,0,0,1-2.081,2.175Zm6.522-5.042a1.866,1.866,0,0,1-.992-.3,2.233,2.233,0,0,1,.992-4.144,2.238,2.238,0,0,1,1.876,1.182,3.206,3.206,0,0,1,.2,1.087,2.113,2.113,0,0,1-2.072,2.175Zm4.649-8.1h.694l-12.07-5.325L46.4,736.068c0-.11,23.046-3.861,23.046-3.861Zm-23.636,4.839,25.118-4.051v9.487c0-10.37-.095-15.018-.095,2.174a3,3,0,0,0-1.985-.788,3.523,3.523,0,0,0-3.357,3.656,6,6,0,0,0,.189,1.276l-6.712,1.087-13.158,2.081Z" transform="translate(-45.806 -726.881)"/></g></svg>