<svg xmlns="http://www.w3.org/2000/svg" width="15.719" height="28.47" viewBox="0 0 15.719 28.47"><defs><style>.a{fill:#5f5f5f;fill-rule:evenodd;}</style></defs><g transform="translate(0 0)"><path class="a" d="M577.95,479.46h0l-3.487-3.147v-2.342a.885.885,0,0,0-.787-.912L566.72,471.5a1.25,1.25,0,0,0-.895.215,1.436,1.436,0,0,0-.446.786v2.254l-2.7,6.044a.657.657,0,0,0-.108.447v15.683a1.205,1.205,0,0,0,.786,1.019l6.85,2.022h1.342l.447-.233,5.722-2.915a.992.992,0,0,0,.572-.894v-15.7a1.028,1.028,0,0,0-.339-.769Zm-7.743,2.683-5.042-1.574,1.894-4.363L572,477.656Zm2.576-.894,1.126-2.682,1.574,1.447Z" transform="translate(-562.571 -471.503)"/></g></svg>