<svg xmlns="http://www.w3.org/2000/svg" width="58" height="51.99" viewBox="0 0 58 51.99"><defs><style>.a{fill:#4a4a4a;}</style></defs><g transform="translate(-330 -338)"><path class="a" d="M7,14H0V0H7V3.452H3.405v7.1H7V14Z" transform="translate(330 360.99)"/><path class="a" d="M10,20H0V0H10V20ZM3.273,3.3V16.7H6.727V3.3Z" transform="translate(337 357.99)"/><path class="a" d="M10,20H0V0H10V20ZM3.273,3.3V16.7H6.727V3.3Z" transform="translate(371 357.99)"/><path class="a" d="M7,14H0V10.548H3.595v-7.1H0V0H7V14Z" transform="translate(381 360.99)"/><path class="a" d="M3.367,20.466H0A22.161,22.161,0,0,1,.392,17.6,21.927,21.927,0,0,1,3.709,9.72a22.112,22.112,0,0,1,9.7-7.988A21.937,21.937,0,0,1,17.547.448a22.262,22.262,0,0,1,8.886,0,21.926,21.926,0,0,1,7.883,3.317,22.114,22.114,0,0,1,7.988,9.7A21.938,21.938,0,0,1,43.59,17.6a22.161,22.161,0,0,1,.392,2.862H40.8a18.79,18.79,0,0,0-37.434,0Z" transform="translate(336.754 338)"/><path class="a" d="M17.908,5H0V1.666H17.956A1.758,1.758,0,0,0,19.713,0H23a5.065,5.065,0,0,1-1.524,3.537A5.062,5.062,0,0,1,17.908,5Z" transform="translate(358 382.99)"/><rect class="a" width="3" height="6" transform="translate(378 376.99)"/><rect class="a" width="13" height="7" rx="2" transform="translate(345.745 382.99)"/></g></svg>