<svg xmlns="http://www.w3.org/2000/svg" width="15.339" height="28.315" viewBox="0 0 15.339 28.315"><defs><style>.a{fill:#5f5f5f;fill-rule:evenodd;}</style></defs><g transform="translate(0 0)"><path class="a" d="M492.776,581.813h0V561.52a9.426,9.426,0,0,0-1.458-3.112v-.446a.6.6,0,0,0,.338-.55.725.725,0,0,0-.659-.677c-.115-.106-1.458-.106-5.922-.106-4.358,0-5.47.106-5.586.106a.712.712,0,0,0-.657.677.389.389,0,0,0,.107.319v.677a12.866,12.866,0,0,0-1.459,3.112v20.525h0v.107h.126v.106h0l.106.125h0a4.808,4.808,0,0,0,.89.32v1.014a.824.824,0,0,0,.231.446,34.993,34.993,0,0,0,6.688.782,14.344,14.344,0,0,0,6.136-1.12c.232-.108.338-.215.338-.446v-.552a.111.111,0,0,0-.106-.125l.666-.32a.424.424,0,0,0,.223-.569Zm-14.4-.107v-.445c6.474-1.9,4.464-5.9,13.614-5.8v6.242a20.013,20.013,0,0,1-13.614,0Zm1.342-22.961c.107-.106.107-.106.107-.232v-.445h10.716v.676c.221.338.453.782.666,1.121-1.565,4.552-8.039.107-12.831,5.779V561.52a25.437,25.437,0,0,1,1.342-2.774Z" transform="translate(-477.479 -556.629)"/></g></svg>