<svg width="27" height="26" viewBox="0 0 27 26" fill="none" xmlns="http://www.w3.org/2000/svg">
<path d="M14.9206 18.8717H12.2126C10.4432 18.8717 9.00823 17.3767 9.00823 15.535C9.00823 15.0908 9.37505 14.7225 9.81741 14.7225C10.2598 14.7225 10.6266 15.0908 10.6266 15.535C10.6266 16.4775 11.3387 17.2467 12.2126 17.2467H14.9206C15.6219 17.2467 16.2045 16.6183 16.2045 15.86C16.2045 14.9175 15.8701 14.7333 15.3198 14.5383L10.9718 13C10.1303 12.7075 8.99744 12.0792 8.99744 10.14C8.99744 8.47166 10.3029 7.12833 11.8997 7.12833H14.6078C16.3772 7.12833 17.8121 8.62333 17.8121 10.465C17.8121 10.9092 17.4453 11.2775 17.0029 11.2775C16.5606 11.2775 16.1938 10.9092 16.1938 10.465C16.1938 9.52249 15.4817 8.75333 14.6078 8.75333H11.8997C11.1984 8.75333 10.6158 9.38166 10.6158 10.14C10.6158 11.0825 10.9503 11.2667 11.5005 11.4617L15.8485 13C16.6901 13.2925 17.8229 13.9208 17.8229 15.86C17.8121 17.5175 16.5174 18.8717 14.9206 18.8717Z" fill="#7A7A7A"/>
<path d="M13.4102 20.3125C12.9678 20.3125 12.601 19.9442 12.601 19.5V6.5C12.601 6.05583 12.9678 5.6875 13.4102 5.6875C13.8525 5.6875 14.2194 6.05583 14.2194 6.5V19.5C14.2194 19.9442 13.8525 20.3125 13.4102 20.3125Z" fill="#7A7A7A"/>
<path d="M13.4102 24.6458C7.01226 24.6458 1.81192 19.4242 1.81192 13C1.81192 6.57582 7.01226 1.35416 13.4102 1.35416C19.8081 1.35416 25.0084 6.57582 25.0084 13C25.0084 19.4242 19.8081 24.6458 13.4102 24.6458ZM13.4102 2.97916C7.90775 2.97916 3.43028 7.47499 3.43028 13C3.43028 18.525 7.90775 23.0208 13.4102 23.0208C18.9126 23.0208 23.3901 18.525 23.3901 13C23.3901 7.47499 18.9126 2.97916 13.4102 2.97916Z" fill="#7A7A7A"/>
</svg>