<svg xmlns="http://www.w3.org/2000/svg" width="14.727" height="14.087" viewBox="0 0 14.727 14.087"><defs><style>.a{fill:#6c6c6c;}</style></defs><path class="a" d="M159.1,219.96h-9.284a.48.48,0,0,1,0-.96H159.1a.48.48,0,0,1,0,.96Zm0,0" transform="translate(-144.85 -212.437)"/><path class="a" d="M152.381,139.736a.476.476,0,0,1-.339-.141l-2.561-2.561a.481.481,0,0,1,0-.679l2.561-2.561a.48.48,0,0,1,.679.679l-2.222,2.222,2.222,2.222a.48.48,0,0,1-.34.82Zm0,0" transform="translate(-144.858 -129.651)"/><path class="a" d="M7.043,14.419A7.043,7.043,0,1,1,13.6,4.8a.48.48,0,1,1-.894.351,6.083,6.083,0,1,0,0,4.451.48.48,0,1,1,.894.351A7.007,7.007,0,0,1,7.043,14.419Zm0,0" transform="translate(0 -0.332)"/></svg>