<svg xmlns="http://www.w3.org/2000/svg" width="15.849" height="15.908" viewBox="0 0 15.849 15.908"><defs><style>.a{fill:none;stroke:#a4a4a4;}</style></defs><g transform="translate(0.5 0.5)"><g transform="translate(0)"><g transform="translate(0)"><path class="a" d="M14.715,14.042l-3.834-3.773A6.064,6.064,0,0,0,12.5,6.148,6.2,6.2,0,0,0,6.254,0,6.2,6.2,0,0,0,.006,6.148,6.2,6.2,0,0,0,6.254,12.3a6.283,6.283,0,0,0,3.932-1.373l3.849,3.788a.486.486,0,0,0,.68,0A.468.468,0,0,0,14.715,14.042ZM6.254,11.351a5.245,5.245,0,0,1-5.286-5.2A5.245,5.245,0,0,1,6.254.946a5.245,5.245,0,0,1,5.286,5.2A5.245,5.245,0,0,1,6.254,11.351Z" transform="translate(-0.006 0)"/></g></g></g></svg>