<svg xmlns="http://www.w3.org/2000/svg" width="94.2" height="94.199" viewBox="0 0 94.2 94.199"><defs><style>.a{fill:#fff;}.b,.c{fill:#ea2125;}.b{opacity:0.096;}.d{fill:#4a4a4a;}</style></defs><circle class="a" cx="46.5" cy="46.5" r="46.5" transform="translate(0.707 0)"/><path class="b" d="M20.954,61.965A44.937,44.937,0,0,1,83.24,20.537a44.919,44.919,0,1,0-45.7,76.285A44.83,44.83,0,0,1,20.954,61.965Zm0,0" transform="translate(-7.808 -8.289)"/><path class="c" d="M47.1.48a47.1,47.1,0,1,0,33.3,13.8A47.1,47.1,0,0,0,47.1.48Zm0,89.825A42.722,42.722,0,1,1,89.82,47.583,42.777,42.777,0,0,1,47.1,90.305Zm0,0" transform="translate(0.006 -0.48)"/><path class="d" d="M148.2,147.274l-28.283,27.035-15.4-15.423a2.184,2.184,0,0,0-3.089,3.089l16.935,16.935a2.147,2.147,0,0,0,1.556.635,2.115,2.115,0,0,0,1.511-.613l29.8-28.481a2.193,2.193,0,0,0-3.024-3.177Zm0,0" transform="translate(-78.7 -114.652)"/></svg>