<svg xmlns="http://www.w3.org/2000/svg" width="14.26" height="17.497" viewBox="0 0 14.26 17.497"><defs><style>.a{fill:none;stroke:#898989;stroke-width:1.5px;}</style></defs><g transform="translate(0.75 0.75)"><path class="a" d="M90.608,7.242a3.439,3.439,0,0,0,2.529-1.061,3.526,3.526,0,0,0,1.048-2.56,3.526,3.526,0,0,0-1.048-2.56,3.545,3.545,0,0,0-5.058,0,3.526,3.526,0,0,0-1.048,2.56,3.526,3.526,0,0,0,1.048,2.561A3.44,3.44,0,0,0,90.608,7.242Zm0,0" transform="translate(-84.328 0)"/><path class="a" d="M12.729,251.547a8.532,8.532,0,0,0-.124-.935,7.17,7.17,0,0,0-.238-.94,4.567,4.567,0,0,0-.4-.877,3.324,3.324,0,0,0-.6-.759,2.67,2.67,0,0,0-.865-.526,3.08,3.08,0,0,0-1.1-.193,1.142,1.142,0,0,0-.6.246c-.179.113-.389.244-.624.389a3.636,3.636,0,0,1-.807.344,3.234,3.234,0,0,1-1.974,0,3.625,3.625,0,0,1-.806-.344c-.232-.144-.442-.274-.624-.389a1.141,1.141,0,0,0-.6-.246,3.076,3.076,0,0,0-1.1.194,2.667,2.667,0,0,0-.865.526,3.323,3.323,0,0,0-.6.759,4.576,4.576,0,0,0-.4.877,7.186,7.186,0,0,0-.238.94,8.5,8.5,0,0,0-.124.935c-.02.283-.031.577-.031.874a2.416,2.416,0,0,0,.754,1.859,2.769,2.769,0,0,0,1.944.686h7.364a2.768,2.768,0,0,0,1.944-.686,2.414,2.414,0,0,0,.754-1.859C12.76,252.123,12.75,251.829,12.729,251.547Zm0,0" transform="translate(0 -238.969)"/></g></svg>